<svg width="1794" height="705" viewBox="0 0 1794 705" fill="none" xmlns="http://www.w3.org/2000/svg">
<g clip-path="url(#clip0_416_167)">
<path d="M378.501 644.795C532.13 644.795 656.672 518.904 656.672 363.61C656.672 208.316 532.13 82.425 378.501 82.425C224.871 82.425 100.33 208.316 100.33 363.61C100.33 518.904 224.871 644.795 378.501 644.795Z" fill="white"/>
<mask id="mask0_416_167" style="mask-type:alpha" maskUnits="userSpaceOnUse" x="102" y="83" width="554" height="559">
<path d="M450.319 632.173C597.682 592.207 685.092 439.052 645.553 290.092C606.015 141.132 454.502 52.7755 307.139 92.7421C159.776 132.709 72.3665 285.864 111.905 434.824C151.443 583.783 302.956 672.14 450.319 632.173Z" fill="black"/>
</mask>
<g mask="url(#mask0_416_167)">
<path d="M329.749 662.236C431.588 547.392 422.043 370.841 308.43 267.898C194.816 164.956 20.1576 174.604 -81.6813 289.449C-183.52 404.293 -173.975 580.844 -60.3618 683.787C53.2516 786.729 227.91 777.081 329.749 662.236Z" fill="#00C4FF" fill-opacity="0.4"/>
<path d="M455.792 703.222C591.577 550.096 578.851 314.694 427.366 177.437C275.882 40.1809 43.0036 53.0456 -92.7816 206.172C-228.567 359.298 -215.84 594.699 -64.3556 731.956C87.1289 869.212 320.007 856.347 455.792 703.222Z" fill="#00C4FF" fill-opacity="0.4"/>
<path d="M598.736 542.026C734.521 388.9 721.794 153.498 570.31 16.2417C418.825 -121.015 185.947 -108.15 50.1617 44.9758C-85.6235 198.102 -72.8968 433.503 78.5877 570.76C230.072 708.016 462.95 695.152 598.736 542.026Z" fill="#00C4FF" fill-opacity="0.4"/>
</g>
<path d="M129.007 590.896C189.123 590.896 237.856 541.634 237.856 480.867C237.856 420.1 189.123 370.838 129.007 370.838C68.8908 370.838 20.1572 420.1 20.1572 480.867C20.1572 541.634 68.8908 590.896 129.007 590.896Z" fill="#0048FF" stroke="white" stroke-width="42"/>
<path d="M507.964 75.3702C462.485 40.8383 405.952 20.3757 344.69 20.3757C194.4 20.3757 72.5664 143.53 72.5664 295.448C72.5664 364.92 98.0448 428.375 140.071 476.792" stroke="#0011FF" stroke-width="33" stroke-linecap="round"/>
<path d="M802.905 467.501C783.554 467.501 767.686 464.762 755.302 459.285C743.111 453.808 734.306 446.571 728.888 437.573C723.663 428.379 721.824 418.697 723.373 408.525C723.76 406.96 724.534 405.591 725.695 404.417C727.049 403.048 728.597 402.363 730.339 402.363H767.493C770.202 402.363 772.137 402.853 773.298 403.831C774.459 404.809 775.62 406.08 776.781 407.645C777.555 410.579 779.103 413.415 781.426 416.154C783.748 418.892 786.941 421.142 791.004 422.902C795.262 424.467 800.486 425.249 806.679 425.249C817.902 425.249 826.9 423.489 833.673 419.968C840.446 416.447 844.413 411.655 845.574 405.591C846.735 401.288 845.961 397.767 843.252 395.028C840.736 392.094 836.189 389.551 829.61 387.4C823.224 385.052 814.613 382.705 803.776 380.358C789.65 377.228 778.039 372.925 768.944 367.448C759.849 361.775 753.463 354.635 749.787 346.029C746.303 337.226 745.82 326.761 748.335 314.634C752.206 296.638 761.784 282.456 777.072 272.089C792.359 261.526 812.194 256.245 836.576 256.245C849.154 256.245 860.281 258.006 869.956 261.527C879.825 265.047 888.05 269.742 894.629 275.61C901.208 281.478 905.949 287.738 908.852 294.388C911.755 300.843 912.722 307.201 911.755 313.46C911.561 315.025 910.787 316.492 909.432 317.861C908.078 319.035 906.53 319.622 904.788 319.622H865.893C863.958 319.622 862.216 319.231 860.668 318.448C859.313 317.666 858.152 316.394 857.185 314.634C857.185 310.33 854.959 306.614 850.509 303.484C846.058 300.159 840.156 298.496 832.803 298.496C824.482 298.496 817.515 300.061 811.903 303.191C806.292 306.125 802.808 310.722 801.454 316.981C800.486 320.893 800.97 324.316 802.905 327.25C805.034 330.185 808.904 332.727 814.516 334.879C820.321 337.031 828.255 339.28 838.318 341.628C855.346 344.953 868.699 349.452 878.374 355.124C888.05 360.601 894.532 367.545 897.822 375.957C901.305 384.368 901.789 394.637 899.273 406.765C895.016 426.717 884.663 441.876 868.215 452.243C851.96 462.415 830.19 467.501 802.905 467.501ZM927.78 520.314C925.458 520.314 923.909 519.239 923.135 517.087C922.361 515.131 922.652 513.077 924.006 510.925L959.419 454.591L931.263 320.502C930.876 318.35 931.36 316.394 932.714 314.634C934.069 312.873 936.197 311.993 939.1 311.993H969.868C972.384 311.993 974.125 312.678 975.093 314.047C976.254 315.221 976.931 316.59 977.125 318.155L993.38 403.537L1046.5 318.155C1047.27 316.59 1048.43 315.221 1049.98 314.047C1051.72 312.678 1053.85 311.993 1056.37 311.993H1090.91C1093.23 311.993 1094.78 312.971 1095.55 314.927C1096.52 316.688 1096.42 318.644 1095.26 320.795L971.9 514.153C970.932 515.718 969.578 517.087 967.836 518.261C966.288 519.63 964.256 520.314 961.741 520.314H927.78ZM1094.25 464.566C1092.12 464.566 1090.48 463.882 1089.32 462.513C1088.16 461.143 1087.77 459.383 1088.16 457.231L1117.18 319.328C1117.57 317.177 1118.63 315.416 1120.37 314.047C1122.12 312.678 1124.05 311.993 1126.18 311.993H1159.56C1161.69 311.993 1163.24 312.678 1164.2 314.047C1165.37 315.416 1165.75 317.177 1165.37 319.328L1163.04 330.478C1169.04 324.414 1176.2 319.328 1184.52 315.221C1193.04 311.113 1202.62 309.059 1213.26 309.059C1225.45 309.059 1235.51 311.602 1243.45 316.688C1251.38 321.773 1256.8 329.304 1259.7 339.28C1262.6 349.061 1262.51 361.09 1259.41 375.37L1242 457.231C1241.61 459.383 1240.54 461.143 1238.8 462.513C1237.25 463.882 1235.42 464.566 1233.29 464.566H1197C1194.88 464.566 1193.23 463.882 1192.07 462.513C1190.91 461.143 1190.52 459.383 1190.91 457.231L1207.74 377.13C1209.87 367.545 1209.58 360.406 1206.87 355.711C1204.36 350.821 1198.65 348.376 1189.75 348.376C1181.04 348.376 1173.69 350.919 1167.69 356.005C1161.69 360.895 1157.72 367.937 1155.79 377.13L1138.95 457.231C1138.56 459.383 1137.5 461.143 1135.76 462.513C1134.21 463.882 1132.47 464.566 1130.53 464.566H1094.25ZM1343.76 467.501C1330.41 467.501 1318.51 464.86 1308.06 459.579C1297.61 454.297 1289.87 446.668 1284.84 436.693C1279.81 426.521 1278.45 414.393 1280.77 400.31C1281.35 397.18 1282.13 393.268 1283.1 388.573C1284.06 383.683 1284.93 379.673 1285.71 376.543C1290.93 355.222 1301 338.693 1315.9 326.957C1330.99 315.025 1349.76 309.059 1372.21 309.059C1385.17 309.059 1396.11 311.015 1405.01 314.927C1413.91 318.644 1420.97 323.436 1426.2 329.304C1431.42 335.173 1435 341.139 1436.94 347.202C1439.07 353.071 1439.84 358.254 1439.26 362.753C1439.07 364.709 1438.1 366.47 1436.36 368.034C1434.61 369.404 1432.78 370.088 1430.84 370.088H1393.4C1391.46 370.088 1389.91 369.599 1388.75 368.621C1387.79 367.643 1387.11 366.078 1386.72 363.927C1386.33 358.059 1384.59 353.755 1381.5 351.017C1378.59 348.278 1374.24 346.909 1368.43 346.909C1360.69 346.909 1354.02 349.452 1348.41 354.538C1342.99 359.623 1338.92 367.448 1336.21 378.01C1335.44 381.727 1334.67 385.443 1333.89 389.16C1333.12 392.681 1332.44 395.908 1331.86 398.843C1330.12 409.601 1330.7 417.425 1333.6 422.315C1336.51 427.206 1341.83 429.651 1349.57 429.651C1355.57 429.651 1360.69 428.379 1364.95 425.836C1369.4 423.293 1373.18 418.99 1376.27 412.926C1377.63 410.97 1378.98 409.503 1380.34 408.525C1381.69 407.547 1383.33 407.058 1385.27 407.058H1422.71C1424.65 407.058 1426.2 407.84 1427.36 409.405C1428.52 410.775 1428.81 412.437 1428.23 414.393C1427.07 418.305 1424.65 423.293 1420.97 429.357C1417.49 435.225 1412.36 441.094 1405.59 446.962C1399.01 452.83 1390.59 457.72 1380.34 461.632C1370.27 465.545 1358.08 467.501 1343.76 467.501ZM1514.69 467.501C1501.34 467.501 1489.44 464.86 1478.99 459.579C1468.54 454.297 1460.8 446.668 1455.77 436.693C1450.74 426.521 1449.38 414.393 1451.7 400.31C1452.28 397.18 1453.06 393.268 1454.03 388.573C1454.99 383.683 1455.86 379.673 1456.64 376.543C1461.86 355.222 1471.93 338.693 1486.83 326.957C1501.92 315.025 1520.69 309.059 1543.14 309.059C1556.1 309.059 1567.04 311.015 1575.94 314.927C1584.84 318.644 1591.9 323.436 1597.13 329.304C1602.35 335.173 1605.93 341.139 1607.87 347.202C1610 353.071 1610.77 358.254 1610.19 362.753C1610 364.709 1609.03 366.47 1607.29 368.034C1605.54 369.404 1603.71 370.088 1601.77 370.088H1564.33C1562.39 370.088 1560.84 369.599 1559.68 368.621C1558.72 367.643 1558.04 366.078 1557.65 363.927C1557.26 358.059 1555.52 353.755 1552.43 351.017C1549.52 348.278 1545.17 346.909 1539.36 346.909C1531.62 346.909 1524.95 349.452 1519.34 354.538C1513.92 359.623 1509.85 367.448 1507.14 378.01C1506.37 381.727 1505.6 385.443 1504.82 389.16C1504.05 392.681 1503.37 395.908 1502.79 398.843C1501.05 409.601 1501.63 417.425 1504.53 422.315C1507.44 427.206 1512.76 429.651 1520.5 429.651C1526.5 429.651 1531.62 428.379 1535.88 425.836C1540.33 423.293 1544.11 418.99 1547.2 412.926C1548.56 410.97 1549.91 409.503 1551.27 408.525C1552.62 407.547 1554.26 407.058 1556.2 407.058H1593.64C1595.58 407.058 1597.13 407.84 1598.28 409.405C1599.45 410.775 1599.74 412.437 1599.16 414.393C1598 418.305 1595.58 423.293 1591.9 429.357C1588.42 435.225 1583.29 441.094 1576.52 446.962C1569.94 452.83 1561.52 457.72 1551.27 461.632C1541.2 465.545 1529.01 467.501 1514.69 467.501ZM1687.65 467.501C1672.17 467.501 1659.2 464.86 1648.75 459.579C1638.3 454.297 1630.76 446.766 1626.11 436.986C1621.66 427.01 1620.5 415.176 1622.63 401.483C1623.02 397.571 1623.69 393.17 1624.66 388.28C1625.82 383.194 1626.98 378.793 1628.15 375.076C1631.82 361.188 1637.43 349.354 1644.98 339.574C1652.53 329.793 1662.2 322.262 1674.01 316.981C1685.81 311.7 1699.84 309.059 1716.1 309.059C1731.38 309.059 1744.25 311.7 1754.7 316.981C1765.15 322.262 1772.79 329.793 1777.63 339.574C1782.47 349.354 1783.82 361.188 1781.7 375.076C1780.92 378.793 1780.05 383.194 1779.08 388.28C1778.12 393.17 1777.15 397.571 1776.18 401.483C1772.5 415.176 1766.99 427.01 1759.64 436.986C1752.28 446.766 1742.7 454.297 1730.9 459.579C1719.09 464.86 1704.68 467.501 1687.65 467.501ZM1692 431.705C1700.71 431.705 1707.77 429.064 1713.19 423.782C1718.61 418.501 1722.67 410.579 1725.38 400.016C1726.16 397.082 1727.03 393.17 1728 388.28C1729.16 383.39 1729.93 379.477 1730.32 376.543C1732.06 366.176 1731.58 358.352 1728.87 353.071C1726.16 347.594 1720.45 344.855 1711.74 344.855C1703.42 344.855 1696.45 347.594 1690.84 353.071C1685.42 358.352 1681.46 366.176 1678.94 376.543C1678.17 379.477 1677.2 383.39 1676.04 388.28C1675.07 393.17 1674.39 397.082 1674.01 400.016C1672.27 410.579 1672.65 418.501 1675.17 423.782C1677.88 429.064 1683.49 431.705 1692 431.705Z" fill="black"/>
</g>
<defs>
<clipPath id="clip0_416_167">
<rect width="1794" height="705" fill="white"/>
</clipPath>
</defs>
</svg>
